<?xml version="1.0" encoding="UTF-8" standalone="no"?>
<svg
   xmlns:dc="http://purl.org/dc/elements/1.1/"
   xmlns:cc="http://creativecommons.org/ns#"
   xmlns:rdf="http://www.w3.org/1999/02/22-rdf-syntax-ns#"
   xmlns:svg="http://www.w3.org/2000/svg"
   xmlns="http://www.w3.org/2000/svg"
   xmlns:sodipodi="http://sodipodi.sourceforge.net/DTD/sodipodi-0.dtd"
   xmlns:inkscape="http://www.inkscape.org/namespaces/inkscape"
   height="512pt"
   viewBox="0 0 512 512"
   width="512pt"
   version="1.1"
   id="svg62"
   sodipodi:docname="plus.svg"
   inkscape:version="0.92.4 (f8dce91, 2019-08-02)">
  <metadata
     id="metadata68">
    <rdf:RDF>
      <cc:Work
         rdf:about="">
        <dc:format>image/svg+xml</dc:format>
        <dc:type
           rdf:resource="http://purl.org/dc/dcmitype/StillImage" />
      </cc:Work>
    </rdf:RDF>
  </metadata>
  <defs
     id="defs66" />
  <sodipodi:namedview
     pagecolor="#ffffff"
     bordercolor="#666666"
     borderopacity="1"
     objecttolerance="10"
     gridtolerance="10"
     guidetolerance="10"
     inkscape:pageopacity="0"
     inkscape:pageshadow="2"
     inkscape:window-width="1853"
     inkscape:window-height="1025"
     id="namedview64"
     showgrid="false"
     inkscape:zoom="0.61816406"
     inkscape:cx="371.84635"
     inkscape:cy="322.09614"
     inkscape:window-x="67"
     inkscape:window-y="27"
     inkscape:window-maximized="1"
     inkscape:current-layer="svg62" />
  <path
     d="m 256.60664,89.781983 c -93.99788,0 -170.464462,76.466587 -170.464462,170.464457 0,93.99787 76.466582,170.46446 170.464462,170.46446 93.99787,0 170.46446,-76.46659 170.46446,-170.46446 0,-93.99787 -76.46659,-170.464457 -170.46446,-170.464457 z m 0,0"
     id="path58"
     inkscape:connector-curvature="0"
     style="fill:#2196f3;stroke-width:0.66587681" />
  <path
     d="m 331.18484,274.45095 h -60.3737 v 60.37369 c 0,7.84226 -6.36224,14.20451 -14.2045,14.20451 -7.84226,0 -14.20451,-6.36225 -14.20451,-14.20451 v -60.37369 h -60.3737 c -7.84226,0 -14.2045,-6.36225 -14.2045,-14.20451 0,-7.84226 6.36224,-14.2045 14.2045,-14.2045 h 60.3737 v -60.3737 c 0,-7.84226 6.36225,-14.2045 14.20451,-14.2045 7.84226,0 14.2045,6.36224 14.2045,14.2045 v 60.3737 h 60.3737 c 7.84226,0 14.2045,6.36224 14.2045,14.2045 0,7.84226 -6.36224,14.20451 -14.2045,14.20451 z m 0,0"
     id="path60"
     inkscape:connector-curvature="0"
     style="fill:#fafafa;stroke-width:0.66587681" />
</svg>
