<?xml version="1.0" encoding="UTF-8" standalone="no"?>
<!-- Generator: Adobe Illustrator 16.0.0, SVG Export Plug-In . SVG Version: 6.00 Build 0)  -->

<svg
   xmlns:dc="http://purl.org/dc/elements/1.1/"
   xmlns:cc="http://creativecommons.org/ns#"
   xmlns:rdf="http://www.w3.org/1999/02/22-rdf-syntax-ns#"
   xmlns:svg="http://www.w3.org/2000/svg"
   xmlns="http://www.w3.org/2000/svg"
   xmlns:sodipodi="http://sodipodi.sourceforge.net/DTD/sodipodi-0.dtd"
   xmlns:inkscape="http://www.inkscape.org/namespaces/inkscape"
   version="1.1"
   id="Capa_1"
   x="0px"
   y="0px"
   width="401.279px"
   height="401.279px"
   viewBox="0 0 401.279 401.279"
   style="enable-background:new 0 0 401.279 401.279;"
   xml:space="preserve"
   sodipodi:docname="bus.svg"
   inkscape:version="0.92.4 (f8dce91, 2019-08-02)"><metadata
   id="metadata6054"><rdf:RDF><cc:Work
       rdf:about=""><dc:format>image/svg+xml</dc:format><dc:type
         rdf:resource="http://purl.org/dc/dcmitype/StillImage" /></cc:Work></rdf:RDF></metadata><defs
   id="defs6052" /><sodipodi:namedview
   pagecolor="#ffffff"
   bordercolor="#666666"
   borderopacity="1"
   objecttolerance="10"
   gridtolerance="10"
   guidetolerance="10"
   inkscape:pageopacity="0"
   inkscape:pageshadow="2"
   inkscape:window-width="1853"
   inkscape:window-height="1025"
   id="namedview6050"
   showgrid="false"
   inkscape:zoom="0.5881195"
   inkscape:cx="200.6395"
   inkscape:cy="200.6395"
   inkscape:window-x="67"
   inkscape:window-y="27"
   inkscape:window-maximized="1"
   inkscape:current-layer="Capa_1" />
<g
   id="g6017">
	<path
   d="M374.878,79.565h-15.102V52.723C359.777,23.605,336.172,0,307.054,0H94.225C65.107,0,41.502,23.605,41.502,52.723v26.842   H26.401c-6.063,0-10.978,4.915-10.978,10.979v60.812c0,6.063,4.915,10.978,10.978,10.978h15.102v131.081   c-5.874,5.265-9.572,12.908-9.572,21.417v20.316c0,15.883,12.875,28.758,28.758,28.758h3.558v28.914   c0,4.672,3.79,8.459,8.462,8.459h38.908c4.672,0,8.458-3.787,8.458-8.459v-28.914h161.13v28.914c0,4.672,3.786,8.459,8.459,8.459   h38.907c4.672,0,8.461-3.787,8.461-8.459v-28.914h3.559c15.882,0,28.758-12.875,28.758-28.758v-20.316   c0-8.508-3.698-16.152-9.572-21.417V162.333h15.102c6.062,0,10.978-4.915,10.978-10.978V90.543   C385.856,84.48,380.942,79.565,374.878,79.565z M327.175,83.855v129.731H215.019V83.855H327.175z M144.722,27.49h111.836   c7.765,0,14.06,6.294,14.06,14.06c0,7.764-6.294,14.059-14.06,14.059H144.722c-7.765,0-14.06-6.295-14.06-14.059   C130.662,33.784,136.957,27.49,144.722,27.49z M74.105,83.855h112.156v129.731H74.105V83.855z M124.303,271.463   c0,7.643-6.216,13.858-13.86,13.858H87.572c-7.631,0-13.846-6.216-13.846-13.858v-15.42c0-7.645,6.215-13.859,13.846-13.859h22.871   c7.644,0,13.86,6.215,13.86,13.859V271.463z M276.978,271.463v-15.42c0-7.645,6.215-13.859,13.859-13.859h22.871   c7.631,0,13.846,6.215,13.846,13.859v15.42c0,7.643-6.215,13.858-13.846,13.858h-22.871   C283.194,285.322,276.978,279.105,276.978,271.463z"
   id="path6015" />
</g>
<g
   id="g6019">
</g>
<g
   id="g6021">
</g>
<g
   id="g6023">
</g>
<g
   id="g6025">
</g>
<g
   id="g6027">
</g>
<g
   id="g6029">
</g>
<g
   id="g6031">
</g>
<g
   id="g6033">
</g>
<g
   id="g6035">
</g>
<g
   id="g6037">
</g>
<g
   id="g6039">
</g>
<g
   id="g6041">
</g>
<g
   id="g6043">
</g>
<g
   id="g6045">
</g>
<g
   id="g6047">
</g>
<path
   style="fill:#ff6600;stroke-width:1.70033467"
   d="m 67.964808,398.26697 c -2.046006,-2.046 -2.671955,-6.37673 -2.671955,-18.48636 V 363.9662 l -7.147906,-1.143 c -10.006305,-1.60008 -17.863851,-6.96192 -21.955348,-14.9819 -3.011799,-5.90362 -3.414092,-9.33212 -2.922729,-24.9086 0.487648,-15.45867 1.12133,-18.83591 4.395544,-23.42617 3.810751,-5.34245 3.825753,-5.62416 3.825753,-71.83914 V 161.19173 H 31.382574 c -15.208153,0 -15.399428,-0.49867 -15.399428,-40.14783 0,-38.861879 0.358327,-39.803982 15.620771,-41.069662 L 40.988301,79.196012 42.04292,59.517115 C 43.311982,35.836759 47.260135,26.062409 60.287343,14.349829 75.303526,0.84898901 69.776442,1.3602678 200.70858,1.3602678 c 111.83107,0 116.43994,0.1248555 125.16914,3.3908637 11.57145,4.3294366 22.60302,14.9288505 28.16761,27.0641695 3.62774,7.911416 4.48106,12.706282 5.09542,28.631598 l 0.73793,19.128765 h 8.05841 c 5.57783,0 9.43751,1.084799 12.53854,3.52408 l 4.48015,3.52408 v 34.469926 c 0,40.40104 0.11989,40.09798 -15.86198,40.09798 h -9.64304 v 66.23754 66.23754 l 4.3814,6.45177 c 4.18196,6.1581 4.35611,7.34183 3.82576,26.00562 -0.49504,17.42073 -1.00102,20.17829 -4.63828,25.27807 -4.45617,6.24797 -15.31515,12.03298 -22.69765,12.09195 l -4.67592,0.0373 v 16.94353 c 0,15.01134 -0.37506,17.14424 -3.28889,18.70368 -1.80888,0.96809 -12.52099,1.76015 -23.80468,1.76015 -26.72738,0 -27.31714,-0.47721 -27.31714,-22.10435 v -15.30301 h -80.7659 -80.7659 v 15.88965 c 0,21.57862 0.0782,21.51771 -27.642868,21.51771 -17.209186,0 -21.949585,-0.52565 -24.095884,-2.67195 z M 121.28049,280.83602 c 2.87888,-3.6599 3.51418,-6.85073 3.47,-17.42843 -0.056,-13.40967 -1.39613,-16.85236 -7.91073,-20.32206 -4.97544,-2.64992 -30.874656,-2.49296 -36.243895,0.21965 -9.136762,4.61605 -11.231423,29.4247 -3.205712,37.96767 3.543006,3.77136 5.028293,4.04331 22.082376,4.04331 17.727141,0 18.391181,-0.13636 21.807961,-4.48014 z m 202.41998,1.12273 c 4.49156,-4.49155 5.69027,-10.04779 4.80579,-22.27562 -1.12181,-15.50889 -3.96754,-17.57788 -25.1827,-18.30906 -16.89124,-0.58214 -16.94414,-0.57126 -22.06052,4.54514 -4.80756,4.80754 -5.12868,5.94018 -5.12868,18.08926 0,11.49352 0.47242,13.43302 4.17355,17.13414 3.90348,3.90349 5.33382,4.17355 22.10435,4.17355 15.58668,0 18.36972,-0.43892 21.28821,-3.35741 z M 187.71695,148.43922 V 82.976334 H 130.75574 73.794526 v 65.462886 65.46289 h 56.961214 56.96121 z m 139.42745,0 V 82.976334 h -56.11105 -56.11104 v 65.462886 65.46289 h 56.11104 56.11105 z M 266.8598,51.59743 c 2.8815,-2.881504 4.17355,-6.063764 4.17355,-10.279297 0,-4.215532 -1.29205,-7.397792 -4.17355,-10.279297 l -4.17354,-4.173548 H 202.3271 c -40.61458,0 -61.71454,0.617545 -64.50252,1.887834 -8.39679,3.825833 -10.42056,16.169209 -3.74546,22.844308 l 4.17355,4.173549 h 62.21679 62.2168 z"
   id="path6056"
   inkscape:connector-curvature="0" /></svg>