<?xml version="1.0" encoding="UTF-8" standalone="no"?>
<!-- Generator: Adobe Illustrator 16.0.0, SVG Export Plug-In . SVG Version: 6.00 Build 0)  -->

<svg
   xmlns:dc="http://purl.org/dc/elements/1.1/"
   xmlns:cc="http://creativecommons.org/ns#"
   xmlns:rdf="http://www.w3.org/1999/02/22-rdf-syntax-ns#"
   xmlns:svg="http://www.w3.org/2000/svg"
   xmlns="http://www.w3.org/2000/svg"
   xmlns:sodipodi="http://sodipodi.sourceforge.net/DTD/sodipodi-0.dtd"
   xmlns:inkscape="http://www.inkscape.org/namespaces/inkscape"
   version="1.1"
   id="Capa_1"
   x="0px"
   y="0px"
   width="348.077px"
   height="348.077px"
   viewBox="0 0 348.077 348.077"
   style="enable-background:new 0 0 348.077 348.077;"
   xml:space="preserve"
   sodipodi:docname="call-answer.svg"
   inkscape:version="0.92.4 (f8dce91, 2019-08-02)"><metadata
   id="metadata6206"><rdf:RDF><cc:Work
       rdf:about=""><dc:format>image/svg+xml</dc:format><dc:type
         rdf:resource="http://purl.org/dc/dcmitype/StillImage" /></cc:Work></rdf:RDF></metadata><defs
   id="defs6204" /><sodipodi:namedview
   pagecolor="#ffffff"
   bordercolor="#666666"
   borderopacity="1"
   objecttolerance="10"
   gridtolerance="10"
   guidetolerance="10"
   inkscape:pageopacity="0"
   inkscape:pageshadow="2"
   inkscape:window-width="1853"
   inkscape:window-height="1025"
   id="namedview6202"
   showgrid="false"
   inkscape:zoom="0.67801091"
   inkscape:cx="174.0385"
   inkscape:cy="174.0385"
   inkscape:window-x="67"
   inkscape:window-y="27"
   inkscape:window-maximized="1"
   inkscape:current-layer="Capa_1" />
<g
   id="g6169">
	<g
   id="g6167">
		<g
   id="g6165">
			<path
   d="M340.273,275.083l-53.755-53.761c-10.707-10.664-28.438-10.34-39.518,0.744l-27.082,27.076     c-1.711-0.943-3.482-1.928-5.344-2.973c-17.102-9.476-40.509-22.464-65.14-47.113c-24.704-24.701-37.704-48.144-47.209-65.257     c-1.003-1.813-1.964-3.561-2.913-5.221l18.176-18.149l8.936-8.947c11.097-11.1,11.403-28.826,0.721-39.521L73.39,8.194     C62.708-2.486,44.969-2.162,33.872,8.938l-15.15,15.237l0.414,0.411c-5.08,6.482-9.325,13.958-12.484,22.02     C3.74,54.28,1.927,61.603,1.098,68.941C-6,127.785,20.89,181.564,93.866,254.541c100.875,100.868,182.167,93.248,185.674,92.876     c7.638-0.913,14.958-2.738,22.397-5.627c7.992-3.122,15.463-7.361,21.941-12.43l0.331,0.294l15.348-15.029     C350.631,303.527,350.95,285.795,340.273,275.083z"
   id="path6163" />
		</g>
	</g>
</g>
<g
   id="g6171">
</g>
<g
   id="g6173">
</g>
<g
   id="g6175">
</g>
<g
   id="g6177">
</g>
<g
   id="g6179">
</g>
<g
   id="g6181">
</g>
<g
   id="g6183">
</g>
<g
   id="g6185">
</g>
<g
   id="g6187">
</g>
<g
   id="g6189">
</g>
<g
   id="g6191">
</g>
<g
   id="g6193">
</g>
<g
   id="g6195">
</g>
<g
   id="g6197">
</g>
<g
   id="g6199">
</g>
<path
   style="fill:#cc00ff;stroke-width:1.47490251"
   d="M 245.42378,344.01511 C 205.2035,335.38319 161.3776,312.4157 122.26942,279.47459 104.00791,264.09279 68.512417,227.76874 53.508325,209.10844 28.623538,178.15971 12.572845,149.26543 5.46385,122.61928 2.1865319,110.33514 1.5829983,104.94411 1.5279059,87.46172 1.4273057,55.538359 8.1476915,37.001098 27.138206,16.819225 40.909864,2.1836109 52.353229,-1.9864854 64.426868,3.2307998 67.0372,4.3587825 83.218713,19.458097 100.38578,36.784831 c 35.42862,35.75813 36.53393,37.53088 32.33991,51.86844 -1.91898,6.56019 -4.46737,9.873909 -17.77867,23.117989 -8.54622,8.50307 -15.53859,16.09342 -15.53859,16.86746 0,2.8181 16.54971,30.54114 25.34676,42.45931 22.13448,29.9876 59.0998,61.09691 90.04045,75.77633 l 5.50698,2.61273 16.6828,-16.30174 c 14.75338,-14.41639 17.51105,-16.47839 23.84431,-17.82914 3.93881,-0.84007 7.89126,-1.31014 8.78317,-1.0446 0.89192,0.26554 3.61279,0.91771 6.04638,1.44928 5.45935,1.19248 66.35705,60.95283 69.48189,68.18422 5.11613,11.83954 1.05667,23.4127 -12.865,36.677 -12.12884,11.55613 -19.92799,16.42133 -34.49335,21.51733 -10.1497,3.55109 -13.9642,4.11458 -27.2857,4.03068 -8.51756,-0.0537 -19.80056,-1.02339 -25.07334,-2.15501 z"
   id="path6208"
   inkscape:connector-curvature="0" /></svg>