<?xml version="1.0" encoding="UTF-8" standalone="no"?>
<!-- Generator: Adobe Illustrator 16.0.0, SVG Export Plug-In . SVG Version: 6.00 Build 0)  -->

<svg
   xmlns:dc="http://purl.org/dc/elements/1.1/"
   xmlns:cc="http://creativecommons.org/ns#"
   xmlns:rdf="http://www.w3.org/1999/02/22-rdf-syntax-ns#"
   xmlns:svg="http://www.w3.org/2000/svg"
   xmlns="http://www.w3.org/2000/svg"
   xmlns:sodipodi="http://sodipodi.sourceforge.net/DTD/sodipodi-0.dtd"
   xmlns:inkscape="http://www.inkscape.org/namespaces/inkscape"
   version="1.1"
   id="Capa_1"
   x="0px"
   y="0px"
   width="500.043px"
   height="500.043px"
   viewBox="0 0 500.043 500.043"
   style="enable-background:new 0 0 500.043 500.043;"
   xml:space="preserve"
   sodipodi:docname="dumbbell.svg"
   inkscape:version="0.92.4 (f8dce91, 2019-08-02)"><metadata
   id="metadata6394"><rdf:RDF><cc:Work
       rdf:about=""><dc:format>image/svg+xml</dc:format><dc:type
         rdf:resource="http://purl.org/dc/dcmitype/StillImage" /></cc:Work></rdf:RDF></metadata><defs
   id="defs6392" /><sodipodi:namedview
   pagecolor="#ffffff"
   bordercolor="#666666"
   borderopacity="1"
   objecttolerance="10"
   gridtolerance="10"
   guidetolerance="10"
   inkscape:pageopacity="0"
   inkscape:pageshadow="2"
   inkscape:window-width="1853"
   inkscape:window-height="1025"
   id="namedview6390"
   showgrid="false"
   inkscape:zoom="0.47195941"
   inkscape:cx="250.0215"
   inkscape:cy="250.0215"
   inkscape:window-x="67"
   inkscape:window-y="27"
   inkscape:window-maximized="1"
   inkscape:current-layer="Capa_1" />
<g
   id="g6357">
	<g
   id="g6355">
		<path
   d="M491.445,206.857c-4.752,0-8.605,4.857-8.605,10.834c0,16.582,0,48.1,0,64.672c0,5.977,3.854,10.824,8.615,10.824    c4.752,0,8.588-4.848,8.588-10.824c0-16.562,0-48.081,0-64.682C500.043,211.714,496.197,206.857,491.445,206.857z"
   id="path6345" />
		<path
   d="M8.616,206.857c-4.752,0-8.616,4.857-8.616,10.834c0,16.601,0,48.071,0.01,64.653c0,5.977,3.854,10.824,8.606,10.844    c4.753,0,8.597-4.848,8.597-10.824c0-16.572,0-48.081,0.01-64.682C17.222,211.714,13.369,206.857,8.616,206.857z"
   id="path6347" />
		<path
   d="M114.568,108.812c-15.854,0-28.716,14.544-28.716,32.474c0,54.354,0.01,163.137,0.02,217.471    c0,17.93,12.842,32.473,28.697,32.473s28.716-14.553,28.716-32.473c0-21.316,0-51.045,0-82.545c16.553,0,164.713,0,208.874,0    c0,31.51,0,61.229,0,82.555c0,17.92,12.861,32.463,28.717,32.463c15.854,0,28.697-14.553,28.697-32.473    c0-54.354,0-163.137,0-217.471c0-17.939-12.844-32.474-28.697-32.474c-15.855,0-28.717,14.525-28.717,32.474    c0,21.315,0,51.035,0,82.543c-44.178,0-192.321,0-208.874,0c0-31.508,0-61.229,0-82.553    C143.285,123.338,130.433,108.812,114.568,108.812z"
   id="path6349" />
		<path
   d="M447.602,152.188c-0.938,0-1.865,0-2.811,0c-11.945,0-21.641,9.668-21.641,21.63c0,37.647,0,114.76,0,152.406    c0,11.953,9.695,21.65,21.648,21.65c0.938,0,1.885,0,2.812,0c11.953,0,21.648-9.668,21.648-21.631    c0-37.637,0-114.759-0.008-152.407C469.26,161.875,459.555,152.188,447.602,152.188z"
   id="path6351" />
		<path
   d="M52.116,152.188c-0.937,0-1.884,0-2.821,0c-11.953,0-21.64,9.668-21.64,21.63c0,37.647,0,114.76,0,152.406    c0,11.963,9.687,21.65,21.64,21.65c0.937,0,1.884,0,2.811,0c11.953,0,21.64-9.668,21.64-21.631c0-37.637,0-114.759,0-152.407    C73.756,161.875,64.069,152.188,52.116,152.188z"
   id="path6353" />
	</g>
</g>
<g
   id="g6359">
</g>
<g
   id="g6361">
</g>
<g
   id="g6363">
</g>
<g
   id="g6365">
</g>
<g
   id="g6367">
</g>
<g
   id="g6369">
</g>
<g
   id="g6371">
</g>
<g
   id="g6373">
</g>
<g
   id="g6375">
</g>
<g
   id="g6377">
</g>
<g
   id="g6379">
</g>
<g
   id="g6381">
</g>
<g
   id="g6383">
</g>
<g
   id="g6385">
</g>
<g
   id="g6387">
</g>
<path
   style="fill:#241c1f;stroke-width:2.11882615"
   d="m 99.843336,384.91556 c -12.430619,-9.27207 -12.123929,-5.87318 -12.123929,-134.36268 0,-130.63625 -0.277264,-127.87687 13.718333,-136.52663 13.75685,-8.5022 29.95305,-2.73364 37.21016,13.25304 3.58696,7.90173 4.07343,14.1594 4.11446,52.92688 l 0.0465,43.96565 h 104.8819 104.8819 l 0.0466,-43.96565 c 0.0411,-38.76748 0.5275,-45.02515 4.11446,-52.92688 9.57745,-21.09818 34.6113,-23.2968 46.48628,-4.0827 4.37231,7.07468 4.44212,9.05855 4.44212,126.22675 0,100.9542 -0.47641,119.96039 -3.1359,125.10327 -8.36697,16.17995 -26.892,20.04537 -40.17483,8.38286 -4.17259,-3.66355 -8.38581,-9.94261 -9.59663,-14.30207 -1.18718,-4.27421 -2.16381,-27.07909 -2.1703,-50.67752 l -0.0118,-42.90623 h -104.8819 -104.8819 l -0.0119,42.90623 c -0.007,23.59843 -0.98313,46.40331 -2.1703,50.67752 -1.21083,4.35946 -5.42405,10.63852 -9.59662,14.30207 -9.16867,8.05021 -21.97902,8.87422 -31.186822,2.00609 z"
   id="path6396"
   inkscape:connector-curvature="0" /><path
   style="fill:#6c5367;stroke-width:2.11882615"
   d="m 434.73048,343.76091 c -3.17543,-1.72324 -6.75095,-4.95953 -7.9456,-7.19176 -1.37721,-2.57334 -2.1721,-34.33777 -2.1721,-86.79869 v -82.74009 l 5.96754,-6.67884 c 4.80877,-5.38194 7.61102,-6.67884 14.43121,-6.67884 4.65502,0 10.63159,1.16024 13.28127,2.57831 10.142,5.42783 10.81558,11.27199 10.81204,93.80839 -0.003,68.95569 -0.38495,77.63646 -3.70794,84.26192 -6.03012,12.02297 -18.71244,15.92679 -30.66642,9.4396 z"
   id="path6398"
   inkscape:connector-curvature="0" /><path
   style="fill:#6c5367;stroke-width:2.11882615"
   d="m 102.51813,385.50652 c -9.444794,-5.0324 -12.5484,-11.22304 -12.899349,-25.72982 -0.237057,-9.79891 -0.539338,-10.64193 -1.899374,-5.29707 -0.889597,3.49607 -1.604742,-43.70079 -1.589212,-104.8819 0.01553,-61.1811 0.730676,-107.90122 1.589212,-103.82248 1.445974,6.86953 1.597087,6.55733 2.051107,-4.23766 0.269571,-6.40944 1.128916,-14.03722 1.909656,-16.95061 1.828205,-6.82207 18.15703,-15.52593 25.6633,-13.67946 2.89166,0.71132 6.17956,1.45815 7.30644,1.65961 2.64584,0.47304 10.3804,9.46616 13.98231,16.25751 3.32156,6.26273 3.23841,5.03411 3.76394,55.61919 l 0.41273,39.72799 h 104.8819 104.8819 l 0.41273,-39.72799 c 0.39043,-37.58186 0.72385,-47.50333 1.76231,-52.44095 0.24508,-1.16536 0.3327,-2.83393 0.19472,-3.70795 -0.13802,-0.87402 0.86145,-1.58912 2.22104,-1.58912 1.35956,0 1.95243,-0.51952 1.31746,-1.15449 -0.63497,-0.63497 1.74185,-4.05081 5.28179,-7.59077 8.62286,-8.62285 20.86974,-9.34637 31.77068,-1.87694 8.13364,5.57327 9.91522,9.34804 10.01344,21.21633 0.0462,5.57399 0.57152,6.62651 2.11531,4.23765 1.33883,-2.07169 1.97795,35.55097 1.83569,108.06014 -0.11992,61.18111 -0.9461,108.37797 -1.83569,104.8819 -1.33117,-5.23146 -1.66181,-4.20021 -1.86814,5.82678 -0.13794,6.70078 -0.0559,12.42162 0.18222,12.71295 1.07646,1.31749 -8.41431,10.69586 -13.57026,13.40955 -6.95007,3.65794 -12.22804,3.79988 -20.09614,0.54036 -3.2806,-1.35903 -6.67224,-2.55087 -7.537,-2.64853 -3.08175,-0.34798 -10.67251,-17.255 -11.01959,-24.54404 -0.1943,-4.07874 -0.53926,-24.81675 -0.7668,-46.08447 l -0.41377,-38.66858 H 247.98484 143.39698 l -1.04192,46.08447 c -0.94995,42.017 -1.44492,46.8325 -5.60793,54.55978 -2.5113,4.66142 -5.27354,8.5552 -6.13831,8.65284 -0.86476,0.0977 -4.25642,1.2895 -7.53701,2.64853 -8.17598,3.38705 -11.95654,3.118 -20.55368,-1.46275 z"
   id="path6400"
   inkscape:connector-curvature="0" /><path
   style="fill:#6c5367;stroke-width:2.11882615"
   d="m 486.48251,289.43167 c -1.7808,-1.7808 -2.54259,-13.47977 -2.54259,-39.04694 0,-30.34111 0.56144,-37.0658 3.32538,-39.82974 2.51014,-2.51013 4.32821,-2.78868 7.41589,-1.13621 3.80581,2.03681 4.09051,4.80904 4.09051,39.82974 0,37.25414 -0.9497,42.72574 -7.41589,42.72574 -1.28189,0 -3.47487,-1.14417 -4.8733,-2.54259 z"
   id="path6402"
   inkscape:connector-curvature="0" /><path
   style="fill:#6c5367;stroke-width:2.11882615"
   d="m 431.99521,340.15652 -5.56684,-4.78839 -1.23231,-83.69788 -1.23231,-83.69789 8.08,-7.09434 c 7.05772,-6.19676 9.14868,-6.951 16.52665,-5.9614 15.47348,2.07542 16.91896,5.36566 19.00588,43.2617 1.01191,18.37517 1.30414,55.12824 0.6494,81.6735 -1.25099,50.71894 -2.61442,58.04198 -11.71314,62.91146 -7.04959,3.77282 -18.51824,2.55344 -24.51733,-2.60676 z"
   id="path6404"
   inkscape:connector-curvature="0" /><path
   style="fill:#6c5367;stroke-width:2.11882615"
   d="m 35.52547,339.78892 -7.274821,-7.27482 0.600518,-83.77784 c 0.580856,-81.03478 0.741786,-83.91904 4.915069,-88.0904 9.07459,-9.07041 25.714828,-8.99733 33.996657,0.1493 3.836832,4.23748 4.099206,9.08718 4.66827,86.28825 0.40499,54.94242 -0.146233,83.60711 -1.678924,87.30735 -2.887929,6.97208 -12.416049,12.67298 -21.180798,12.67298 -4.888345,0 -8.794007,-2.02285 -14.045971,-7.27482 z"
   id="path6406"
   inkscape:connector-curvature="0" /><path
   style="fill:#6c5367;stroke-width:2.11882615"
   d="m 3.390122,289.43167 c -1.7807978,-1.7808 -2.54259149,-13.47977 -2.54259149,-39.04694 0,-30.36067 0.56036869,-37.06472 3.32958419,-39.83394 3.9961771,-3.99617 5.6087764,-4.13782 8.9596083,-0.78699 1.78495,1.78495 2.542591,13.65466 2.542591,39.83393 0,36.89949 -0.958482,42.37653 -7.4158916,42.37653 -1.2818898,0 -3.474875,-1.14417 -4.8733004,-2.54259 z"
   id="path6408"
   inkscape:connector-curvature="0" /></svg>