<?xml version="1.0" encoding="UTF-8" standalone="no"?>
<!-- Generator: Adobe Illustrator 17.1.0, SVG Export Plug-In . SVG Version: 6.00 Build 0)  -->

<svg
   xmlns:dc="http://purl.org/dc/elements/1.1/"
   xmlns:cc="http://creativecommons.org/ns#"
   xmlns:rdf="http://www.w3.org/1999/02/22-rdf-syntax-ns#"
   xmlns:svg="http://www.w3.org/2000/svg"
   xmlns="http://www.w3.org/2000/svg"
   xmlns:sodipodi="http://sodipodi.sourceforge.net/DTD/sodipodi-0.dtd"
   xmlns:inkscape="http://www.inkscape.org/namespaces/inkscape"
   version="1.1"
   id="Capa_1"
   x="0px"
   y="0px"
   viewBox="0 0 226.969 226.969"
   style="enable-background:new 0 0 226.969 226.969;"
   xml:space="preserve"
   sodipodi:docname="frontal-taxi-cab.svg"
   inkscape:version="0.92.4 (f8dce91, 2019-08-02)"><metadata
   id="metadata4294"><rdf:RDF><cc:Work
       rdf:about=""><dc:format>image/svg+xml</dc:format><dc:type
         rdf:resource="http://purl.org/dc/dcmitype/StillImage" /></cc:Work></rdf:RDF></metadata><defs
   id="defs4292" /><sodipodi:namedview
   pagecolor="#ffffff"
   bordercolor="#666666"
   borderopacity="1"
   objecttolerance="10"
   gridtolerance="10"
   guidetolerance="10"
   inkscape:pageopacity="0"
   inkscape:pageshadow="2"
   inkscape:window-width="1853"
   inkscape:window-height="1025"
   id="namedview4290"
   showgrid="false"
   inkscape:zoom="1.0397896"
   inkscape:cx="113.4845"
   inkscape:cy="113.4845"
   inkscape:window-x="67"
   inkscape:window-y="27"
   inkscape:window-maximized="1"
   inkscape:current-layer="Capa_1" />
<g
   id="g4257">
	<path
   d="M217.289,83.307c-1.024,0-2.075,0.146-3.124,0.436l-11.023,3.036L191.49,58.398c-3.491-8.506-13.813-15.427-23.009-15.427   h-7.753V19.442c0-4.136-3.364-7.5-7.5-7.5H73.742c-4.136,0-7.5,3.364-7.5,7.5v23.529h-7.913c-9.195,0-19.518,6.92-23.009,15.426   L23.684,86.739l-10.879-2.997c-1.049-0.289-2.101-0.436-3.124-0.436C4.072,83.307,0,87.593,0,93.497v6.032   c0,6.893,5.608,12.5,12.5,12.5h0.802l-1.664,4.052c-3.244,7.903-5.884,21.283-5.884,29.825v56.621c0,6.893,5.607,12.5,12.5,12.5   h15.027c6.893,0,12.5-5.607,12.5-12.5v-13.916H181.03v13.916c0,6.893,5.608,12.5,12.5,12.5h15.024c6.893,0,12.5-5.607,12.5-12.5   v-56.621c0-8.542-2.64-21.922-5.884-29.825l-1.664-4.052h0.963c6.893,0,12.5-5.607,12.5-12.5v-6.032   C226.969,87.593,222.898,83.307,217.289,83.307z M143.612,21.944c0-0.165,0.135-0.3,0.3-0.3h5.778c0.165,0,0.3,0.135,0.3,0.3   v20.797c0,0.1-0.057,0.175-0.132,0.23h-6.114c-0.075-0.055-0.132-0.13-0.132-0.23V21.944z M102.172,21.644h6.943   c0.165,0,0.35,0.125,0.411,0.279l8.241,20.716l7.554-9.345c0.104-0.128,0.114-0.346,0.023-0.483l-7.25-10.917   c-0.092-0.138-0.031-0.25,0.134-0.25h6.421c0.165,0,0.371,0.115,0.457,0.255l3.737,6.062c0.086,0.141,0.228,0.141,0.314,0   l3.74-6.062c0.086-0.141,0.292-0.255,0.457-0.255h6.424c0.165,0,0.225,0.112,0.134,0.25l-7.256,10.917   c-0.092,0.138-0.081,0.355,0.022,0.483l7.692,9.514c0.052,0.063,0.064,0.122,0.045,0.164h-6.818   c-0.09-0.047-0.171-0.11-0.218-0.185l-4.221-6.755c-0.088-0.14-0.23-0.14-0.318,0l-4.212,6.755   c-0.047,0.075-0.128,0.138-0.218,0.185h-12.847c-0.088-0.052-0.164-0.124-0.193-0.215l-1.416-4.336   c-0.051-0.157-0.228-0.285-0.393-0.285h-7.87c-0.165,0-0.345,0.127-0.399,0.283l-1.526,4.34c-0.032,0.09-0.108,0.162-0.197,0.213   h-6.179c-0.049-0.051-0.07-0.121-0.035-0.208l8.404-20.84C101.822,21.769,102.007,21.644,102.172,21.644z M81.852,42.741v-16.52   c0-0.165-0.135-0.3-0.3-0.3h-6.945c-0.165,0-0.3-0.135-0.3-0.3v-3.678c0-0.165,0.135-0.3,0.3-0.3h20.91c0.165,0,0.3,0.135,0.3,0.3   v3.678c0,0.165-0.135,0.3-0.3,0.3h-6.985c-0.165,0-0.3,0.135-0.3,0.3v16.52c0,0.1-0.057,0.175-0.132,0.23h-6.116   C81.909,42.917,81.852,42.841,81.852,42.741z M32.516,105.062l17.705-43.129c2.089-5.088,8.298-9.251,13.798-9.251h98.772   c5.5,0,11.709,4.163,13.798,9.251l17.705,43.129c2.089,5.088-0.702,9.251-6.202,9.251H38.718   C33.218,114.313,30.427,110.15,32.516,105.062z M72.512,160.604c0,2.75-2.25,5-5,5H33.718c-2.75,0-5-2.25-5-5v-16.032   c0-2.75,2.25-5,5-5h33.794c2.75,0,5,2.25,5,5V160.604z M197.768,160.604c0,2.75-2.25,5-5,5h-33.794c-2.75,0-5-2.25-5-5v-16.032   c0-2.75,2.25-5,5-5h33.794c2.75,0,5,2.25,5,5V160.604z"
   id="path4253" />
	<path
   d="M108.157,33.858c0.165,0,0.246-0.124,0.181-0.275l-2.492-5.751c-0.066-0.151-0.176-0.153-0.244-0.003l-2.639,5.757   c-0.068,0.15,0.01,0.272,0.175,0.272H108.157z"
   id="path4255" />
</g>
<g
   id="g4259">
</g>
<g
   id="g4261">
</g>
<g
   id="g4263">
</g>
<g
   id="g4265">
</g>
<g
   id="g4267">
</g>
<g
   id="g4269">
</g>
<g
   id="g4271">
</g>
<g
   id="g4273">
</g>
<g
   id="g4275">
</g>
<g
   id="g4277">
</g>
<g
   id="g4279">
</g>
<g
   id="g4281">
</g>
<g
   id="g4283">
</g>
<g
   id="g4285">
</g>
<g
   id="g4287">
</g>
<path
   style="fill:#ffcc00;stroke-width:0.96173304"
   d="m 11.555106,212.26573 c -5.3085072,-4.17567 -5.4000146,-4.83948 -5.4000146,-39.17239 0,-36.87891 0.9211148,-44.57896 7.1667416,-59.91031 0.497711,-1.22174 -0.157797,-1.67803 -3.082589,-2.14573 -6.3911531,-1.02199 -9.85455079,-6.26541 -9.85455079,-14.919329 0,-4.757129 0.42308617,-6.262644 2.43033049,-8.648119 3.2904721,-3.910503 6.4359574,-4.370692 14.3369953,-2.097521 3.66802,1.05531 6.757324,1.818263 6.865118,1.695453 0.107794,-0.122811 2.927398,-6.90279 6.265785,-15.066621 3.338387,-8.163831 7.389952,-16.558775 9.003477,-18.655431 4.521683,-5.875594 11.513051,-9.331818 20.206733,-9.98932 l 7.25114,-0.548403 V 29.919714 c 0,-12.401559 0.08915,-12.977447 2.360617,-15.248914 l 2.360618,-2.360617 h 41.749403 c 51.66395,0 46.81747,-1.784886 46.81747,17.242182 v 13.255644 l 7.0873,0.536012 c 10.87341,0.822355 18.98036,5.75277 23.10608,14.052457 1.21471,2.443625 4.50608,10.069094 7.31415,16.945485 2.80807,6.876391 5.1726,12.600271 5.2545,12.719733 0.0819,0.119461 3.48149,-0.688691 7.55464,-1.795895 6.31366,-1.716242 7.83652,-1.834661 10.32707,-0.80304 4.39356,1.81987 5.98657,5.759505 5.53812,13.696122 -0.35512,6.284627 -0.59582,6.893677 -3.93309,9.952057 -2.45256,2.24761 -4.48571,3.25774 -6.55703,3.25774 -2.48677,0 -2.88114,0.28897 -2.29697,1.68304 2.39984,5.72705 5.25067,16.22731 6.20172,22.84239 0.71256,4.95617 1.0003,19.09453 0.8089,39.74524 l -0.29708,32.0526 -3.59237,3.29109 -3.59238,3.29108 -11.31448,-0.004 c -9.65163,-0.003 -11.78237,-0.28885 -14.498,-1.94452 -4.35411,-2.65437 -5.95296,-7.03062 -5.95296,-16.29367 v -7.72475 H 113.48116 45.771817 l -0.333269,9.06824 c -0.270621,7.36357 -0.712275,9.57824 -2.349445,11.78123 -3.265214,4.3937 -5.687473,5.08775 -17.810086,5.10314 -9.884459,0.0125 -11.464649,-0.21707 -13.723911,-1.99421 z M 70.75591,164.59581 c 1.506365,-1.36324 1.75876,-3.15259 1.75876,-12.46869 0,-9.76951 -0.189413,-10.97841 -1.860241,-11.87261 -1.097384,-0.5873 -9.447153,-0.99557 -20.361099,-0.99557 -23.210985,0 -22.018379,-0.7344 -22.018379,13.55878 0,13.986 -1.037021,13.36975 22.498557,13.36975 15.607667,0 18.476108,-0.22848 19.982402,-1.59166 z M 196.57823,164.264 c 1.66116,-1.66116 1.92347,-3.20577 1.92347,-11.3268 0,-14.39488 1.18409,-13.67826 -22.60073,-13.67826 -23.78482,0 -22.60073,-0.71662 -22.60073,13.67826 0,13.74783 -0.84868,13.25027 22.60073,13.25027 17.47149,0 18.88531,-0.13152 20.67726,-1.92347 z m -2.72057,-51.89764 c 1.25847,-1.55443 1.74668,-3.22236 1.42053,-4.85313 -1.01055,-5.05276 -19.02327,-47.608874 -21.08681,-49.818822 -4.77162,-5.110186 -3.32509,-4.991438 -60.80306,-4.991438 -57.428952,0 -56.040637,-0.113264 -60.768298,4.95772 -1.156422,1.240403 -6.5117,13.051374 -11.900615,26.246604 -10.877818,26.635276 -11.070995,27.863226 -4.729956,30.066296 2.525625,0.87748 22.043537,1.11315 79.648079,0.96173 l 76.30266,-0.20057 z M 88.864132,34.968964 V 26.852289 L 92.47063,26.5538 c 3.142377,-0.260076 3.646046,-0.642847 3.913811,-2.974354 l 0.307322,-2.675865 -11.367248,0.271533 -11.367245,0.271532 v 2.404333 c 0,2.08412 0.480319,2.444086 3.606499,2.702821 l 3.606498,0.298489 v 8.116675 8.116676 h 3.846933 3.846932 z m 12.107598,5.712343 c 0.52618,-2.096467 1.13091,-2.404333 4.72273,-2.404333 3.59182,0 4.19655,0.307866 4.72272,2.404333 0.57618,2.295659 0.92754,2.404333 7.77343,2.404333 7.0877,0 7.18818,-0.03518 8.75526,-3.06559 l 1.58528,-3.065589 2.52679,3.074259 c 2.04525,2.488402 3.22935,3.072607 6.21349,3.06559 l 3.68671,-0.0087 -2.0187,-2.644766 c -1.11028,-1.454621 -2.85637,-3.763858 -3.8802,-5.131639 l -1.8615,-2.486873 3.31912,-4.928618 c 1.82551,-2.710754 3.31912,-5.378484 3.31912,-5.928305 0,-0.54982 -1.40653,-1.003574 -3.12563,-1.008343 -2.35346,-0.0065 -3.74986,0.750818 -5.65241,3.065589 l -2.52679,3.07426 -1.58528,-3.06559 c -1.37872,-2.666144 -2.08331,-3.065589 -5.40751,-3.065589 -2.10224,0 -3.82224,0.330362 -3.82224,0.734137 0,0.403776 1.51473,2.983381 3.36607,5.732458 1.85133,2.749076 3.34981,5.339978 3.32995,5.757561 -0.0198,0.417581 -1.49473,2.463638 -3.27751,4.54679 l -3.24139,3.787549 -1.36661,-3.306683 c -0.75162,-1.818675 -2.59096,-6.444337 -4.08742,-10.279248 l -2.72083,-6.972564 h -4.07359 -4.07359 l -2.607121,6.491698 c -1.433915,3.570434 -3.421135,8.547402 -4.416036,11.05993 l -1.808912,4.568232 h 3.814575 c 3.266806,0 3.901234,-0.345261 4.418024,-2.404333 z m 49.44332,-8.713652 V 20.849669 l -3.6065,0.298489 -3.6065,0.298488 -0.27193,10.819497 -0.27193,10.819497 h 3.87843 3.87843 z"
   id="path4296"
   inkscape:connector-curvature="0" /></svg>