<?xml version="1.0" encoding="UTF-8" standalone="no"?>
<!-- Generator: Adobe Illustrator 19.0.0, SVG Export Plug-In . SVG Version: 6.00 Build 0)  -->

<svg
   xmlns:dc="http://purl.org/dc/elements/1.1/"
   xmlns:cc="http://creativecommons.org/ns#"
   xmlns:rdf="http://www.w3.org/1999/02/22-rdf-syntax-ns#"
   xmlns:svg="http://www.w3.org/2000/svg"
   xmlns="http://www.w3.org/2000/svg"
   xmlns:sodipodi="http://sodipodi.sourceforge.net/DTD/sodipodi-0.dtd"
   xmlns:inkscape="http://www.inkscape.org/namespaces/inkscape"
   version="1.1"
   id="Capa_1"
   x="0px"
   y="0px"
   viewBox="0 0 512 512"
   style="enable-background:new 0 0 512 512;"
   xml:space="preserve"
   sodipodi:docname="gift.svg"
   inkscape:version="0.92.4 (f8dce91, 2019-08-02)"><metadata
   id="metadata4604"><rdf:RDF><cc:Work
       rdf:about=""><dc:format>image/svg+xml</dc:format><dc:type
         rdf:resource="http://purl.org/dc/dcmitype/StillImage" /></cc:Work></rdf:RDF></metadata><defs
   id="defs4602" /><sodipodi:namedview
   pagecolor="#ffffff"
   bordercolor="#666666"
   borderopacity="1"
   objecttolerance="10"
   gridtolerance="10"
   guidetolerance="10"
   inkscape:pageopacity="0"
   inkscape:pageshadow="2"
   inkscape:window-width="1853"
   inkscape:window-height="1025"
   id="namedview4600"
   showgrid="false"
   inkscape:zoom="0.4609375"
   inkscape:cx="256"
   inkscape:cy="256"
   inkscape:window-x="67"
   inkscape:window-y="27"
   inkscape:window-maximized="1"
   inkscape:current-layer="Capa_1" />
<g
   id="g4555">
	<g
   id="g4553">
		<path
   d="M32,271.692v192c0,17.664,14.368,32,32,32h160v-224H32z"
   id="path4551" />
	</g>
</g>
<g
   id="g4561">
	<g
   id="g4559">
		<path
   d="M480,143.692H378.752c7.264-4.96,13.504-9.888,17.856-14.304c25.824-25.952,25.824-68.192,0-94.144    c-25.088-25.28-68.8-25.216-93.856,0c-13.888,13.92-50.688,70.592-45.6,108.448h-2.304c5.056-37.856-31.744-94.528-45.6-108.448    c-25.088-25.216-68.8-25.216-93.856,0C89.6,61.196,89.6,103.436,115.36,129.388c4.384,4.416,10.624,9.344,17.888,14.304H32    c-17.632,0-32,14.368-32,32v48c0,8.832,7.168,16,16,16h208v-64h64v64h208c8.832,0,16-7.168,16-16v-48    C512,158.06,497.664,143.692,480,143.692z M222.112,142.636c0,0-1.344,1.056-5.92,1.056c-22.112,0-64.32-22.976-78.112-36.864    c-13.408-13.504-13.408-35.52,0-49.024c6.496-6.528,15.104-10.112,24.256-10.112c9.12,0,17.728,3.584,24.224,10.112    C208.128,79.5,229.568,134.924,222.112,142.636z M295.776,143.692c-4.544,0-5.888-1.024-5.888-1.056    c-7.456-7.712,13.984-63.136,35.552-84.832c12.896-13.024,35.456-13.088,48.48,0c13.44,13.504,13.44,35.52,0,49.024    C360.128,120.716,317.92,143.692,295.776,143.692z"
   id="path4557" />
	</g>
</g>
<g
   id="g4567">
	<g
   id="g4565">
		<path
   d="M288,271.692v224h160c17.664,0,32-14.336,32-32v-192H288z"
   id="path4563" />
	</g>
</g>
<g
   id="g4569">
</g>
<g
   id="g4571">
</g>
<g
   id="g4573">
</g>
<g
   id="g4575">
</g>
<g
   id="g4577">
</g>
<g
   id="g4579">
</g>
<g
   id="g4581">
</g>
<g
   id="g4583">
</g>
<g
   id="g4585">
</g>
<g
   id="g4587">
</g>
<g
   id="g4589">
</g>
<g
   id="g4591">
</g>
<g
   id="g4593">
</g>
<g
   id="g4595">
</g>
<g
   id="g4597">
</g>
<path
   style="fill:#ff00ff;stroke-width:2.16949153"
   d="M 49.119154,489.8829 C 45.230282,487.51183 40.108507,482.39006 37.737433,478.50119 33.60189,471.71835 33.426059,467.3899 33.418279,372.17627 l -0.0081,-99.25424 h 94.372881 94.37288 V 383.5661 494.21017 l -82.98305,-0.009 c -78.977493,-0.009 -83.324347,-0.2163 -90.053726,-4.31915 z"
   id="path4606"
   inkscape:connector-curvature="0" /><path
   style="fill:#ff00ff;stroke-width:2.16949153"
   d="m 5.4211597,233.01463 c -4.67552455,-4.97686 -4.8512282,-6.52275 -4.1747829,-36.73092 0.6229675,-27.82 1.2355399,-32.25603 5.1993667,-37.65193 9.4344975,-12.84304 14.0170095,-13.70267 73.0661205,-13.70637 29.532206,-0.002 53.674076,-0.73558 53.648596,-1.63049 -0.0255,-0.89492 -3.92396,-4.37044 -8.66329,-7.72338 C 106.86077,123.09431 94.257779,94.789623 97.439013,74.802445 99.592667,61.271389 107.72285,45.050158 116.8694,36.035203 c 24.27258,-23.923346 65.34429,-24.428295 89.776,-1.103734 22.8112,21.777488 48.05291,75.748081 48.05291,102.744381 0,12.54266 3.23165,7.8476 3.72232,-5.40791 0.60334,-16.29963 9.85418,-42.34837 23.00677,-64.783133 21.50679,-36.684772 39.37867,-49.533026 68.72853,-49.409603 19.06419,0.08017 32.81063,5.623562 45.55932,18.372254 12.7736,12.773599 18.29752,26.495423 18.34058,45.559322 0.0488,21.6644 -5.58661,33.95832 -23.122,50.44068 l -13.27159,12.47457 55.12821,0.008 c 51.1825,0.008 55.63427,0.31666 62.19887,4.31915 13.65708,8.32683 15.69178,14.72446 15.70087,49.36766 0.007,28.02876 -0.39702,31.32037 -4.33087,35.25423 -4.22092,4.22092 -7.23163,4.33898 -110.64407,4.33898 H 289.41017 V 206.75243 175.2948 h -33.62712 -33.62712 v 31.45763 31.45762 H 116.22902 10.302108 L 5.4211597,233.01454 Z M 222.98231,132.98502 C 222.57132,115.72203 206.02398,78.921047 190.23624,60.158377 174.76176,41.768012 145.24833,43.240255 133.19326,63.0039 c -10.12307,16.596245 -7.59553,32.961681 7.19657,46.59656 18.18928,16.76629 59.61792,35.91535 75.25763,34.78542 l 7.59322,-0.54859 z m 104.58188,3.04115 c 25.98153,-10.81614 47.30967,-26.06663 53.0562,-37.937349 11.16498,-23.06379 -2.54774,-47.829667 -27.828,-50.258779 -14.43563,-1.38708 -24.69728,3.770346 -35.21029,17.696412 -15.84662,20.991211 -33.41206,66.094916 -29.60455,76.017116 2.16526,5.64253 18.12126,3.41866 39.58664,-5.5174 z"
   id="path4608"
   inkscape:connector-curvature="0" /><path
   style="fill:#ff00ff;stroke-width:2.16949153"
   d="M 289.41017,383.5661 V 272.92203 h 94.37288 94.37288 v 100.08291 c 0,96.55725 -0.15405,100.33218 -4.37318,107.15887 -8.55563,13.8433 -10.02609,14.04636 -101.7174,14.04636 h -82.65518 z"
   id="path4610"
   inkscape:connector-curvature="0" /></svg>