<?xml version="1.0" encoding="UTF-8" standalone="no"?>
<!-- Generator: Adobe Illustrator 16.0.0, SVG Export Plug-In . SVG Version: 6.00 Build 0)  -->

<svg
   xmlns:dc="http://purl.org/dc/elements/1.1/"
   xmlns:cc="http://creativecommons.org/ns#"
   xmlns:rdf="http://www.w3.org/1999/02/22-rdf-syntax-ns#"
   xmlns:svg="http://www.w3.org/2000/svg"
   xmlns="http://www.w3.org/2000/svg"
   xmlns:sodipodi="http://sodipodi.sourceforge.net/DTD/sodipodi-0.dtd"
   xmlns:inkscape="http://www.inkscape.org/namespaces/inkscape"
   version="1.1"
   id="Capa_1"
   x="0px"
   y="0px"
   width="460.298px"
   height="460.297px"
   viewBox="0 0 460.298 460.297"
   style="enable-background:new 0 0 460.298 460.297;"
   xml:space="preserve"
   sodipodi:docname="home.svg"
   inkscape:version="0.92.4 (f8dce91, 2019-08-02)"><metadata
   id="metadata6860"><rdf:RDF><cc:Work
       rdf:about=""><dc:format>image/svg+xml</dc:format><dc:type
         rdf:resource="http://purl.org/dc/dcmitype/StillImage" /></cc:Work></rdf:RDF></metadata><defs
   id="defs6858" /><sodipodi:namedview
   pagecolor="#ffffff"
   bordercolor="#666666"
   borderopacity="1"
   objecttolerance="10"
   gridtolerance="10"
   guidetolerance="10"
   inkscape:pageopacity="0"
   inkscape:pageshadow="2"
   inkscape:window-width="1853"
   inkscape:window-height="1025"
   id="namedview6856"
   showgrid="false"
   inkscape:zoom="0.51271245"
   inkscape:cx="230.149"
   inkscape:cy="230.1485"
   inkscape:window-x="67"
   inkscape:window-y="27"
   inkscape:window-maximized="1"
   inkscape:current-layer="Capa_1" />
<g
   id="g6823">
	<g
   id="g6821">
		<path
   d="M230.149,120.939L65.986,256.274c0,0.191-0.048,0.472-0.144,0.855c-0.094,0.38-0.144,0.656-0.144,0.852v137.041    c0,4.948,1.809,9.236,5.426,12.847c3.616,3.613,7.898,5.431,12.847,5.431h109.63V303.664h73.097v109.64h109.629    c4.948,0,9.236-1.814,12.847-5.435c3.617-3.607,5.432-7.898,5.432-12.847V257.981c0-0.76-0.104-1.334-0.288-1.707L230.149,120.939    z"
   id="path6817" />
		<path
   d="M457.122,225.438L394.6,173.476V56.989c0-2.663-0.856-4.853-2.574-6.567c-1.704-1.712-3.894-2.568-6.563-2.568h-54.816    c-2.666,0-4.855,0.856-6.57,2.568c-1.711,1.714-2.566,3.905-2.566,6.567v55.673l-69.662-58.245    c-6.084-4.949-13.318-7.423-21.694-7.423c-8.375,0-15.608,2.474-21.698,7.423L3.172,225.438c-1.903,1.52-2.946,3.566-3.14,6.136    c-0.193,2.568,0.472,4.811,1.997,6.713l17.701,21.128c1.525,1.712,3.521,2.759,5.996,3.142c2.285,0.192,4.57-0.476,6.855-1.998    L230.149,95.817l197.57,164.741c1.526,1.328,3.521,1.991,5.996,1.991h0.858c2.471-0.376,4.463-1.43,5.996-3.138l17.703-21.125    c1.522-1.906,2.189-4.145,1.991-6.716C460.068,229.007,459.021,226.961,457.122,225.438z"
   id="path6819" />
	</g>
</g>
<g
   id="g6825">
</g>
<g
   id="g6827">
</g>
<g
   id="g6829">
</g>
<g
   id="g6831">
</g>
<g
   id="g6833">
</g>
<g
   id="g6835">
</g>
<g
   id="g6837">
</g>
<g
   id="g6839">
</g>
<g
   id="g6841">
</g>
<g
   id="g6843">
</g>
<g
   id="g6845">
</g>
<g
   id="g6847">
</g>
<g
   id="g6849">
</g>
<g
   id="g6851">
</g>
<g
   id="g6853">
</g>
<path
   style="fill:#00ffff;stroke-width:1.95041096"
   d="M 77.542991,411.16306 C 67.179082,406.9807 67.08746,406.24779 67.1853,328.30779 l 0.09066,-72.21883 80.86757,-66.31397 c 44.47717,-36.47269 81.7594,-66.08741 82.84941,-65.8105 1.09001,0.2769 37.92895,30.11819 81.86431,66.31397 l 79.88248,65.8105 0.0369,73.28804 0.0367,73.28802 -5.03017,4.72842 -5.03015,4.72841 -57.383,0.57082 -57.38296,0.57081 v -55.71205 -55.71204 l -37.54542,0.52972 -37.54541,0.52972 -0.51797,55.09911 -0.51798,55.09911 -55.06874,-0.12364 c -30.2878,-0.068 -56.949613,-0.88265 -59.248466,-1.81035 z"
   id="path6862"
   inkscape:connector-curvature="0" /><path
   style="fill:#2ad4ff;stroke-width:1.95041096"
   d="M 11.525167,248.05267 C 5.0224245,240.38761 0.81164047,233.67061 1.1633669,231.52364 1.8655981,227.23717 207.57906,55.043714 216.72604,51.085867 c 9.05199,-3.91675 21.85359,-3.387843 29.40272,1.214792 3.53249,2.153737 21.64459,16.632259 40.24907,32.174491 18.60448,15.54223 34.36505,28.25861 35.02349,28.25861 0.65844,0 1.19716,-13.57324 1.19716,-30.162751 0,-27.824866 0.29241,-30.319242 3.77261,-32.181782 5.48038,-2.93301 61.12629,-2.653955 64.1017,0.321459 1.71901,1.719006 2.34049,18.282977 2.34049,62.379214 v 60.03871 l 33.15699,27.65756 c 22.39265,18.67859 33.15698,28.90883 33.15698,31.51181 0,5.29742 -20.82863,28.66701 -25.55005,28.66701 -2.10221,0 -47.72063,-36.65107 -103.26903,-82.96914 -63.2996,-52.78127 -100.3678,-82.439252 -101.8792,-81.512768 -1.30671,0.80101 -46.38749,38.137128 -100.17951,82.969148 -58.609202,48.84682 -99.399907,81.51276 -101.786829,81.51276 -2.506397,0 -8.044482,-4.78726 -14.937464,-12.91232 z"
   id="path6864"
   inkscape:connector-curvature="0" /><path
   style="fill:#2ad4ff;stroke-width:1.95041096"
   d="m 119.36116,411.21863 c -32.537044,-0.7695 -44.950009,-1.71868 -46.809868,-3.57938 -3.255091,-3.25656 -5.274766,-62.82474 -3.895618,-114.89717 l 0.992201,-37.4625 55.772905,-45.54498 c 81.13658,-66.25735 102.74926,-83.34797 105.40126,-83.34797 2.63753,0 5.75193,2.48771 97.14007,77.59317 l 64.85117,53.29659 v 71.69419 71.6942 l -5.36363,5.02055 -5.36363,5.02058 -57.04952,0.90727 -57.04952,0.90725 v -55.2984 -55.29841 h -38.03302 -38.03301 v 55.58672 55.58671 l -14.14048,-0.41561 c -7.77727,-0.22857 -34.06596,-0.88683 -58.41931,-1.46281 z"
   id="path6866"
   inkscape:connector-curvature="0" /></svg>