<?xml version="1.0" encoding="UTF-8" standalone="no"?>
<!-- Generator: Adobe Illustrator 16.0.0, SVG Export Plug-In . SVG Version: 6.00 Build 0)  -->

<svg
   xmlns:dc="http://purl.org/dc/elements/1.1/"
   xmlns:cc="http://creativecommons.org/ns#"
   xmlns:rdf="http://www.w3.org/1999/02/22-rdf-syntax-ns#"
   xmlns:svg="http://www.w3.org/2000/svg"
   xmlns="http://www.w3.org/2000/svg"
   xmlns:sodipodi="http://sodipodi.sourceforge.net/DTD/sodipodi-0.dtd"
   xmlns:inkscape="http://www.inkscape.org/namespaces/inkscape"
   version="1.1"
   id="Capa_1"
   x="0px"
   y="0px"
   width="511.626px"
   height="511.627px"
   viewBox="0 0 511.626 511.627"
   style="enable-background:new 0 0 511.626 511.627;"
   xml:space="preserve"
   sodipodi:docname="medical-kit.svg"
   inkscape:version="0.92.4 (f8dce91, 2019-08-02)"><metadata
   id="metadata3888"><rdf:RDF><cc:Work
       rdf:about=""><dc:format>image/svg+xml</dc:format><dc:type
         rdf:resource="http://purl.org/dc/dcmitype/StillImage" /></cc:Work></rdf:RDF></metadata><defs
   id="defs3886" /><sodipodi:namedview
   pagecolor="#ffffff"
   bordercolor="#666666"
   borderopacity="1"
   objecttolerance="10"
   gridtolerance="10"
   guidetolerance="10"
   inkscape:pageopacity="0"
   inkscape:pageshadow="2"
   inkscape:window-width="1853"
   inkscape:window-height="1025"
   id="namedview3884"
   showgrid="false"
   inkscape:zoom="1.6496392"
   inkscape:cx="255.813"
   inkscape:cy="-59.406928"
   inkscape:window-x="67"
   inkscape:window-y="27"
   inkscape:window-maximized="1"
   inkscape:current-layer="Capa_1" />
<g
   id="g3851">
	<g
   id="g3849">
		<path
   d="M18.842,128.478C6.28,141.041,0,156.078,0,173.586v237.54c0,17.512,6.28,32.549,18.842,45.111    c12.563,12.562,27.6,18.843,45.111,18.843h9.136V109.632h-9.136C46.438,109.632,31.402,115.916,18.842,128.478z"
   id="path3843" />
		<path
   d="M365.446,63.953c0-7.614-2.663-14.084-7.994-19.414c-5.325-5.33-11.8-7.993-19.411-7.993H173.589    c-7.612,0-14.083,2.663-19.414,7.993c-5.33,5.327-7.994,11.799-7.994,19.414v45.679H100.5V475.08h310.625V109.632h-45.679V63.953z     M182.725,73.089h146.179v36.543H182.725V73.089z M365.446,319.765c0,2.67-0.855,4.853-2.567,6.571    c-1.711,1.707-3.9,2.566-6.563,2.566h-63.953v63.953c0,2.662-0.862,4.853-2.573,6.563c-1.704,1.711-3.895,2.567-6.561,2.567    H228.41c-2.667,0-4.854-0.856-6.567-2.567c-1.711-1.711-2.568-3.901-2.568-6.563v-63.953h-63.953    c-2.668,0-4.854-0.859-6.567-2.566c-1.714-1.719-2.57-3.901-2.57-6.571v-54.815c0-2.67,0.856-4.859,2.57-6.571    c1.709-1.709,3.899-2.564,6.562-2.564h63.953V191.86c0-2.666,0.856-4.853,2.57-6.567c1.713-1.713,3.899-2.568,6.567-2.568h54.818    c2.665,0,4.855,0.855,6.563,2.568c1.711,1.714,2.573,3.901,2.573,6.567v63.954h63.953c2.663,0,4.853,0.855,6.563,2.564    c1.708,1.712,2.563,3.901,2.563,6.571v54.815H365.446z"
   id="path3845" />
		<path
   d="M492.785,128.478c-12.563-12.562-27.601-18.846-45.111-18.846h-9.137V475.08h9.137c17.511,0,32.548-6.28,45.111-18.843    c12.559-12.562,18.842-27.6,18.842-45.111v-237.54C511.626,156.078,505.343,141.041,492.785,128.478z"
   id="path3847" />
	</g>
</g>
<g
   id="g3853">
</g>
<g
   id="g3855">
</g>
<g
   id="g3857">
</g>
<g
   id="g3859">
</g>
<g
   id="g3861">
</g>
<g
   id="g3863">
</g>
<g
   id="g3865">
</g>
<g
   id="g3867">
</g>
<g
   id="g3869">
</g>
<g
   id="g3871">
</g>
<g
   id="g3873">
</g>
<g
   id="g3875">
</g>
<g
   id="g3877">
</g>
<g
   id="g3879">
</g>
<g
   id="g3881">
</g>
<path
   style="fill:#d40000;stroke-width:0.60619313"
   d="M 52.443303,473.844 C 31.416772,470.35221 10.963306,452.81038 3.7640822,432.09447 0.39213794,422.39164 0.62203669,431.66992 0.38450427,295.70102 0.22150633,202.39729 0.34672947,169.1329 0.87627574,165.06639 4.1571338,139.87194 22.938299,118.83934 48.587172,111.63606 c 2.318673,-0.65118 6.982545,-1.07708 13.941147,-1.2731 l 10.456832,-0.29456 v 182.22979 182.2298 l -8.638252,-0.0709 c -4.751039,-0.039 -10.107657,-0.31489 -11.903596,-0.61313 z"
   id="path3890"
   inkscape:connector-curvature="0" /><path
   style="fill:#d40000;stroke-width:0.60619313"
   d="M 100.87004,292.36695 V 110.20591 h 22.73224 22.73224 V 85.926305 c 0,-27.68604 0.28515,-30.151258 4.18254,-36.159141 3.97002,-6.119844 9.54135,-10.261753 16.10074,-11.969809 3.1827,-0.828768 13.79793,-0.940812 89.13458,-0.940812 92.1821,0 88.70605,-0.113253 94.99479,3.095021 3.22708,1.646334 8.67425,6.797354 10.52153,9.949499 3.58587,6.11883 3.54267,5.741659 3.88664,33.935449 l 0.318,26.066308 22.5807,0.15892 22.58069,0.15893 V 292.37433 474.52799 H 255.75238 100.87004 Z m 187.77747,108.30924 c 3.90423,-2.78471 3.77956,-1.52258 3.77956,-38.26382 v -33.37073 l 33.18907,-10e-4 c 36.61479,-10e-4 35.72665,0.0871 38.60173,-3.83222 1.23132,-1.67856 1.25547,-2.31037 1.25547,-32.84153 0,-30.53115 -0.0241,-31.16297 -1.25547,-32.84153 -2.87508,-3.91934 -1.98694,-3.83117 -38.60173,-3.83221 l -33.18907,-6.7e-4 -0.002,-33.49217 c -0.002,-32.12814 -0.0504,-33.57107 -1.18344,-35.42937 -2.61043,-4.28121 -1.2014,-4.10614 -34.55225,-4.29309 l -30.03384,-0.16836 -2.68301,1.38075 c -5.09108,2.61998 -4.8944,1.06069 -4.8944,38.80371 v 33.19853 H 185.8796 c -31.22543,0 -33.32407,0.0671 -35.31075,1.1294 -1.16172,0.62116 -2.6578,2.05329 -3.32461,3.18251 -1.16885,1.97939 -1.21238,3.14162 -1.21238,32.36277 v 30.30966 l 1.37349,2.20869 c 2.65096,4.26298 1.66119,4.15634 38.57532,4.15634 h 33.09746 v 33.19853 c 0,37.74302 -0.19668,36.18373 4.8944,38.80371 l 2.68301,1.38074 30.00656,-0.16836 30.00656,-0.16835 z M 329.10175,91.413926 V 72.925035 L 255.90393,72.771053 182.70611,72.61707 v 18.796856 18.796854 l 73.19782,-0.15398 73.19782,-0.15398 z"
   id="path3892"
   inkscape:connector-curvature="0" /><path
   style="fill:#d40000;stroke-width:0.60619313"
   d="M 438.51962,292.29819 V 110.0684 l 10.45683,0.29285 c 12.18429,0.34122 16.91342,1.37327 25.66357,5.60062 16.85941,8.14507 29.75696,23.56071 34.71827,41.49659 l 1.60141,5.78935 V 292.06386 420.8799 l -1.35607,5.31893 c -3.59229,14.09012 -12.06893,26.74197 -23.99884,35.8196 -11.67553,8.88406 -22.85468,12.50956 -38.57291,12.50956 h -8.51226 z"
   id="path3894"
   inkscape:connector-curvature="0" /></svg>