<?xml version="1.0" encoding="UTF-8" standalone="no"?>
<!-- Generator: Adobe Illustrator 19.0.0, SVG Export Plug-In . SVG Version: 6.00 Build 0)  -->

<svg
   xmlns:dc="http://purl.org/dc/elements/1.1/"
   xmlns:cc="http://creativecommons.org/ns#"
   xmlns:rdf="http://www.w3.org/1999/02/22-rdf-syntax-ns#"
   xmlns:svg="http://www.w3.org/2000/svg"
   xmlns="http://www.w3.org/2000/svg"
   xmlns:sodipodi="http://sodipodi.sourceforge.net/DTD/sodipodi-0.dtd"
   xmlns:inkscape="http://www.inkscape.org/namespaces/inkscape"
   version="1.1"
   id="Capa_1"
   x="0px"
   y="0px"
   viewBox="0 0 512 512"
   style="enable-background:new 0 0 512 512;"
   xml:space="preserve"
   sodipodi:docname="restaurant.svg"
   inkscape:version="0.92.4 (f8dce91, 2019-08-02)"><metadata
   id="metadata5419"><rdf:RDF><cc:Work
       rdf:about=""><dc:format>image/svg+xml</dc:format><dc:type
         rdf:resource="http://purl.org/dc/dcmitype/StillImage" /></cc:Work></rdf:RDF></metadata><defs
   id="defs5417" /><sodipodi:namedview
   pagecolor="#ffffff"
   bordercolor="#666666"
   borderopacity="1"
   objecttolerance="10"
   gridtolerance="10"
   guidetolerance="10"
   inkscape:pageopacity="0"
   inkscape:pageshadow="2"
   inkscape:window-width="1853"
   inkscape:window-height="1025"
   id="namedview5415"
   showgrid="false"
   inkscape:zoom="0.4609375"
   inkscape:cx="256"
   inkscape:cy="256"
   inkscape:window-x="67"
   inkscape:window-y="27"
   inkscape:window-maximized="1"
   inkscape:current-layer="Capa_1" />
<g
   id="g5370">
	<g
   id="g5368">
		<path
   d="M498.682,435.326L297.917,234.56L63.357,0H45.026l-3.743,9.511c-9.879,25.104-14.1,50.78-12.205,74.249    c2.16,26.752,12.323,49.913,29.392,66.982L241.58,333.852l24.152-24.152l169.285,189.293c16.84,16.84,45.825,17.84,63.665,0    C516.236,481.439,516.236,452.879,498.682,435.326z"
   id="path5366" />
	</g>
</g>
<g
   id="g5376">
	<g
   id="g5374">
		<path
   d="M156.728,291.442L13.317,434.853c-17.552,17.552-17.552,46.113,0,63.665c16.674,16.674,45.519,18.146,63.665,0    l143.412-143.412L156.728,291.442z"
   id="path5372" />
	</g>
</g>
<g
   id="g5382">
	<g
   id="g5380">
		<path
   d="M490.253,85.249l-81.351,81.35l-21.223-21.222l81.351-81.351l-21.222-21.222l-81.35,81.35l-21.222-21.222l81.351-81.35    L405.366,0.361L299.256,106.471c-12.981,12.981-20.732,30.217-21.828,48.535c-0.277,4.641-1.329,9.206-3.074,13.548l68.929,68.929    c4.342-1.747,8.908-2.798,13.548-3.075c18.318-1.093,35.554-8.846,48.535-21.827l106.11-106.109L490.253,85.249z"
   id="path5378" />
	</g>
</g>
<g
   id="g5384">
</g>
<g
   id="g5386">
</g>
<g
   id="g5388">
</g>
<g
   id="g5390">
</g>
<g
   id="g5392">
</g>
<g
   id="g5394">
</g>
<g
   id="g5396">
</g>
<g
   id="g5398">
</g>
<g
   id="g5400">
</g>
<g
   id="g5402">
</g>
<g
   id="g5404">
</g>
<g
   id="g5406">
</g>
<g
   id="g5408">
</g>
<g
   id="g5410">
</g>
<g
   id="g5412">
</g>
<path
   style="fill:#ffffff;stroke-width:2.16949153"
   d="m 458.63051,510.16285 c -16.44006,-5.35855 -21.02739,-9.89689 -105.1743,-104.0512 -47.33957,-52.96954 -86.69898,-96.30826 -87.46535,-96.30826 -0.76638,0 -6.57612,5.11835 -12.91056,11.3741 l -11.51716,11.37408 -96.35299,-96.52662 C 53.297953,143.94709 48.50325,138.74839 41.178064,123.22712 26.718065,92.587963 26.09791,58.43715 39.277187,18.549153 L 44.832506,1.7355932 h 8.936888 8.936886 L 283.37356,222.48136 c 155.93993,155.99537 221.64369,223.1117 223.99601,228.81167 6.93434,16.80273 1.99322,36.02089 -12.54259,48.78351 -10.434,9.16118 -25.85294,13.45772 -36.19647,10.08631 z"
   id="path5421"
   inkscape:connector-curvature="0" /><path
   style="fill:#ffffff;stroke-width:2.16949153"
   d="M 37.54324,509.34459 C 11.479232,504.91637 -5.3857739,476.47464 3.8052777,452.44773 6.564518,445.23463 23.63326,426.93365 82.202958,368.39032 l 74.870502,-74.83681 30.90329,30.90329 30.90329,30.90328 -72.66714,72.82159 c -39.96693,40.05187 -75.595951,74.3867 -79.175612,76.29961 -8.656,4.62564 -19.940777,6.48639 -29.494048,4.86331 z"
   id="path5423"
   inkscape:connector-curvature="0" /><path
   style="fill:#ffffff;stroke-width:2.16949153"
   d="m 309.34539,202.824 -33.06684,-33.11855 2.26228,-15.95116 c 3.8566,-27.19259 8.90856,-34.02491 71.17216,-96.253967 l 55.87173,-55.8407275 9.65299,9.8356805 9.65299,9.835681 -40.6241,40.666346 -40.6241,40.666347 11.36896,11.36896 11.36896,11.36895 40.66634,-40.624092 40.66635,-40.624096 9.83289,9.65025 9.83289,9.65025 -40.68956,40.731878 -40.68955,40.73187 11.36842,11.36842 11.36842,11.36842 40.73187,-40.68956 40.73187,-40.68955 9.69446,9.877935 9.69446,9.877935 -59.64887,59.37983 -59.64888,59.37984 -15.18645,4.37497 c -8.35254,2.40623 -19.12538,4.91535 -23.93964,5.57583 l -8.7532,1.20086 z"
   id="path5425"
   inkscape:connector-curvature="0" /></svg>