<?xml version="1.0" encoding="UTF-8" standalone="no"?>
<!-- Generator: Adobe Illustrator 16.0.0, SVG Export Plug-In . SVG Version: 6.00 Build 0)  -->

<svg
   xmlns:dc="http://purl.org/dc/elements/1.1/"
   xmlns:cc="http://creativecommons.org/ns#"
   xmlns:rdf="http://www.w3.org/1999/02/22-rdf-syntax-ns#"
   xmlns:svg="http://www.w3.org/2000/svg"
   xmlns="http://www.w3.org/2000/svg"
   xmlns:sodipodi="http://sodipodi.sourceforge.net/DTD/sodipodi-0.dtd"
   xmlns:inkscape="http://www.inkscape.org/namespaces/inkscape"
   version="1.1"
   id="Capa_1"
   x="0px"
   y="0px"
   width="39.055px"
   height="39.054px"
   viewBox="0 0 39.055 39.054"
   style="enable-background:new 0 0 39.055 39.054;"
   xml:space="preserve"
   sodipodi:docname="sports-car.svg"
   inkscape:version="0.92.4 (f8dce91, 2019-08-02)"><metadata
   id="metadata5932"><rdf:RDF><cc:Work
       rdf:about=""><dc:format>image/svg+xml</dc:format><dc:type
         rdf:resource="http://purl.org/dc/dcmitype/StillImage" /></cc:Work></rdf:RDF></metadata><defs
   id="defs5930" /><sodipodi:namedview
   pagecolor="#ffffff"
   bordercolor="#666666"
   borderopacity="1"
   objecttolerance="10"
   gridtolerance="10"
   guidetolerance="10"
   inkscape:pageopacity="0"
   inkscape:pageshadow="2"
   inkscape:window-width="1853"
   inkscape:window-height="1025"
   id="namedview5928"
   showgrid="false"
   inkscape:zoom="6.0429148"
   inkscape:cx="19.5275"
   inkscape:cy="19.527"
   inkscape:window-x="67"
   inkscape:window-y="27"
   inkscape:window-maximized="1"
   inkscape:current-layer="Capa_1" />
<g
   id="g5895">
	<g
   id="g5893">
		<path
   d="M38.831,14.26c-0.191-0.233-0.476-0.369-0.775-0.369h-3.801c-0.938-2.474-2.16-4.898-3.549-5.813    c-4.805-3.161-17.55-3.161-22.355,0c-1.39,0.916-2.607,3.343-3.55,5.813H1c-0.302,0-0.586,0.136-0.775,0.369    c-0.19,0.232-0.266,0.539-0.204,0.834l0.563,2.728c0.096,0.465,0.506,0.797,0.979,0.797h1.126    c-1.087,1.254-1.614,2.833-1.621,4.413c-0.007,1.952,0.734,3.716,2.089,4.964c0.015,0.013,0.03,0.022,0.044,0.035v3.817    c0,0.827,0.672,1.5,1.5,1.5h3.506c0.828,0,1.5-0.673,1.5-1.5v-1.534h19.641v1.534c0,0.827,0.672,1.5,1.5,1.5h3.506    c0.826,0,1.5-0.673,1.5-1.5v-3.742c1.438-1.317,2.125-3.129,2.134-4.938c0.006-1.634-0.545-3.271-1.696-4.551h1.201    c0.475,0,0.885-0.332,0.979-0.798l0.564-2.727C39.094,14.799,39.021,14.494,38.831,14.26z M9.998,10.583    c3.83-2.521,15.229-2.521,19.057,0c0.744,0.488,1.701,2.461,2.578,4.877H7.422C8.297,13.045,9.254,11.073,9.998,10.583z     M5.512,23.408c0-1.63,1.322-2.95,2.951-2.95c1.631,0,2.951,1.32,2.951,2.95s-1.32,2.951-2.951,2.951    C6.834,26.359,5.512,25.038,5.512,23.408z M30.631,26.359c-1.629,0-2.951-1.321-2.951-2.951s1.322-2.95,2.951-2.95    c1.631,0,2.951,1.32,2.951,2.95S32.26,26.359,30.631,26.359z"
   id="path5891" />
	</g>
</g>
<g
   id="g5897">
</g>
<g
   id="g5899">
</g>
<g
   id="g5901">
</g>
<g
   id="g5903">
</g>
<g
   id="g5905">
</g>
<g
   id="g5907">
</g>
<g
   id="g5909">
</g>
<g
   id="g5911">
</g>
<g
   id="g5913">
</g>
<g
   id="g5915">
</g>
<g
   id="g5917">
</g>
<g
   id="g5919">
</g>
<g
   id="g5921">
</g>
<g
   id="g5923">
</g>
<g
   id="g5925">
</g>
<path
   style="fill:#a02c2c;stroke-width:0.16548306"
   d="M 3.7579189,32.830018 C 3.296433,32.433462 3.293291,32.417128 3.2406771,30.140918 3.1883001,27.874947 3.1827231,27.845562 2.7118168,27.354349 1.8819416,26.488686 1.3246573,25.039256 1.2517466,23.556879 1.169864,21.892092 1.4194787,20.776857 2.1428511,19.575578 c 0.3143639,-0.522053 0.5715707,-0.977399 0.5715707,-1.01188 0,-0.03448 -0.3632187,-0.06269 -0.8071527,-0.06269 -0.4932715,0 -0.8825723,-0.09088 -1.00109592,-0.233687 C 0.79950444,18.13879 0.55428916,17.28369 0.36125032,16.367096 0.02113617,14.752152 0.01962245,14.690226 0.31235418,14.366762 0.58499886,14.065493 0.81867204,14.032963 2.7101638,14.032963 h 2.095726 L 5.3562851,12.750469 C 6.0545432,11.123435 7.1643695,9.3041184 7.8736834,8.6237468 9.6708338,6.8999256 13.904246,5.8802517 19.345469,5.8606137 c 4.461348,-0.016102 7.797422,0.5432546 10.265648,1.7212304 1.70692,0.8146377 3.249585,2.8481679 4.297605,5.6650749 l 0.292445,0.786044 h 2.116977 c 2.847058,0 2.86169,0.01494 2.37349,2.423174 -0.368919,1.819837 -0.540653,2.044868 -1.560551,2.044868 -0.45298,0 -0.823601,0.03465 -0.823601,0.077 0,0.04235 0.221004,0.425481 0.491119,0.85141 0.55156,0.869719 0.929543,1.932117 1.08638,3.05349 0.211477,1.512045 -0.494717,3.778428 -1.55286,4.983588 l -0.521088,0.593486 v 2.075366 c 0,1.991294 -0.01735,2.095991 -0.428418,2.584511 l -0.428419,0.509146 h -2.292824 c -2.172273,0 -2.316749,-0.02058 -2.747867,-0.391412 -0.392599,-0.337698 -0.464639,-0.542084 -0.524956,-1.489347 l -0.06991,-1.097936 H 19.491673 9.6647101 v 0.980201 c 0,0.813093 -0.073039,1.067005 -0.4284181,1.489348 L 8.8078741,33.228997 H 6.5150496 c -2.184401,0 -2.3147806,-0.01887 -2.7571307,-0.398979 z m 6.4137971,-6.95236 c 2.441601,-1.615775 1.1959,-5.489191 -1.7524224,-5.449031 -1.7440589,0.02376 -2.9389407,1.223104 -2.9389407,2.949924 0,2.450349 2.6399566,3.856663 4.6913631,2.499107 z m 21.791879,0.21552 c 1.303556,-0.631042 1.998165,-2.286816 1.540755,-3.672781 -0.404894,-1.226839 -2.087652,-2.231365 -3.338704,-1.993047 -1.574871,0.300004 -2.510563,1.399923 -2.510563,2.951201 0,1.304008 0.645202,2.27142 1.868775,2.80203 0.80843,0.350579 1.593051,0.32247 2.439737,-0.0874 z M 31.578104,15.149974 C 31.224281,14.035001 30.234072,11.919351 29.787524,11.324281 28.767126,9.9644953 26.169866,9.0917193 22.046508,8.7230096 16.970471,8.2691118 11.033639,9.3102597 9.5543261,10.913775 9.0597769,11.449847 7.3490185,14.99122 7.3480307,15.48094 c -4.58e-5,0.02275 5.4782863,0.04137 12.1740733,0.04137 H 31.69626 Z"
   id="path5934"
   inkscape:connector-curvature="0" /></svg>